<svg xmlns="http://www.w3.org/2000/svg" xmlns:xlink="http://www.w3.org/1999/xlink" aria-hidden="true" role="img" class="iconify iconify--logos" width="31.88" height="32" preserveAspectRatio="xMidYMid meet" viewBox="0 0 256 257"><defs><linearGradient id="IconifyId1813088fe1fbc01fb466" x1="-.828%" x2="57.636%" y1="7.652%" y2="78.411%"><stop offset="0%" stop-color="#41D1FF"></stop><stop offset="100%" stop-color="#BD34FE"></stop></linearGradient><linearGradient id="IconifyId1813088fe1fbc01fb467" x1="43.376%" x2="50.316%" y1="2.242%" y2="89.03%"><stop offset="0%" stop-color="#FFEA83"></stop><stop offset="8.333%" stop-color="#FFDD35"></stop><stop offset="100%" stop-color="#FFA800"></stop></linearGradient></defs><path fill="url(#IconifyId1813088fe1fbc01fb466)" d="M255.153 37.938L134.897 252.976c-2.483 4.44-8.862 4.466-11.382.048L.875 37.958c-2.746-4.814 1.371-10.646 6.827-9.67l120.385 21.517a6.537 6.537 0 0 0 2.322-.004l117.867-21.483c5.438-.991 9.574 4.796 6.877 9.62Z"></path><path fill="url(#IconifyId1813088fe1fbc01fb467)" d="M185.432.063L96.44 17.501a3.268 3.268 0 0 0-2.634 3.014l-5.474 92.456a3.268 3.268 0 0 0 3.997 3.378l24.777-5.718c2.318-.535 4.413 1.507 3.936 3.838l-7.361 36.047c-.495 2.426 1.782 4.5 4.151 3.78l15.304-4.649c2.372-.72 4.652 1.36 4.15 3.788l-11.698 56.621c-.732 3.542 3.979 5.473 5.943 2.4<svg xmlns="http://www.w3.org/2000/svg" width="32" height="32" id="ecommerce"><g transform="translate(574.004 -1711.362)"><g transform="translate(11)"><ellipse cx="-562.278" cy="1740.083" fill="#01d1ff" rx="2.5" ry="2.501"></ellipse><path fill="#fff" d="M-562.277 1737.583a2.5 2.501 0 0 0-2.5 2.5 2.5 2.501 0 0 0 2.5 2.502 2.5 2.501 0 0 0 .494-.053 2.5 2.501 0 0 1-1.994-2.45 2.5 2.501 0 0 1 2.004-2.448 2.5 2.501 0 0 0-.504-.051z"></path><path fill="#00a5ff" d="M-562.278 1737.583a2.5 2.501 0 0 1 2.5 2.5 2.5 2.501 0 0 1-2.5 2.502 2.5 2.501 0 0 1-.494-.053 2.5 2.501 0 0 0 1.994-2.45 2.5 2.501 0 0 0-2.004-2.449 2.5 2.501 0 0 1 .504-.05z"></path><ellipse cx="-562.278" cy="1740.083" fill="none" stroke="#000" rx="2.778" ry="2.779"></ellipse></g><path fill="#f8e71b" d="M-563.399 1732.862h14.288l3.611-12h-20.761"></path><path fill="#fff" d="m-547.275 1720.862-2.725 9.404c-.169.584-.488 1.096-1.096 1.096h-12.66l.358 1.5h14.287l3.611-12h-1.775z"></path><path fill="#f8d459" d="m-566.262 1720.862 2.864 12h1.503l-2.08-9.404c-.134-.608.26-1.096.881-1.096h15.754c.469 0 .93.277 1.186.674l.654-2.174h-20.762z"></path><path fill="none" stroke="#000" stroke-linecap="round" stroke-linejoin="round" d="M-570.5 1717.871h3.226l3.575 14.991h14.588l.903-3 .903-3 .238-.792m.664-2.208.903-3h-20.26"></path><path fill="none" stroke="#000" stroke-linecap="round" stroke-linejoin="round" d="m-567.274 1717.851 4.675 19.464h11.552"></path><ellipse cx="-562.278" cy="1740.083" fill="#01d1ff" rx="2.5" ry="2.501"></ellipse><path fill="none" stroke="#000" d="M-559 1723.862h12.6m-10.6 3h10m-8 3h7"></path><path style="isolation:auto;mix-blend-mode:normal" fill="#f05542" d="M-557.158 1712.362v1.576a6.34 6.34 0 0 0-1.967.807l-1.107-1.11-1.995 1.995 1.114 1.111a6.34 6.34 0 0 0-.813 1.963h-1.574v1.658h3.775c-.005-.084-.025-.164-.025-.25 0-2.203 1.797-4 4-4 2.203 0 4 1.797 4 4 0 .086-.02.166-.025.25H-548v-1.658h-1.576a6.34 6.34 0 0 0-.807-1.967l1.11-1.107-1.995-1.994-1.11 1.113a6.34 6.34 0 0 0-1.964-.813v-1.574z" color="#000" overflow="visible"></path><path fill="#fff" d="M-562.277 1737.583a2.5 2.501 0 0 0-2.5 2.5 2.5 2.501 0 0 0 2.5 2.502 2.5 2.501 0 0 0 .494-.053 2.5 2.501 0 0 1-1.994-2.45 2.5 2.501 0 0 1 2.004-2.448 2.5 2.501 0 0 0-.504-.051z"></path><path fill="#00a5ff" d="M-562.278 1737.583a2.5 2.501 0 0 1 2.5 2.5 2.5 2.501 0 0 1-2.5 2.502 2.5 2.501 0 0 1-.494-.053 2.5 2.501 0 0 0 1.994-2.45 2.5 2.501 0 0 0-2.004-2.449 2.5 2.501 0 0 1 .504-.05z"></path><ellipse cx="-562.278" cy="1740.083" fill="none" stroke="#000" rx="2.778" ry="2.779"></ellipse><path style="isolation:auto;mix-blend-mode:normal" fill="#fff" d="M-557.158 692v1.576c-.454.102-.886.27-1.305.467l.338.34a6.34 6.34 0 0 1 1.967-.807V692h-1zm-3.074 1.273-1.995 1.995 1.114 1.11a6.34 6.34 0 0 0-.813 1.964h1a6.34 6.34 0 0 1 .813-1.963l-1.114-1.111 1.495-1.495-.5-.5zm8.964 0-.771.774c.224.106.45.208.66.34l.611-.614-.5-.5zm-3.482 2.477c-.171 0-.334.03-.5.05 1.966.25 3.5 1.918 3.5 3.95 0 .086-.02.166-.025.25h1c.005-.084.025-.164.025-.25 0-2.203-1.797-4-4-4zm-8.75 2.592V700h1v-1.658h-1z" color="#000" overflow="visible" transform="translate(0 1020.362)"></path><path style="isolation:auto;mix-blend-mode:normal" fill="none" stroke="#000" stroke-linecap="square" stroke-linejoin="round" d="M-559.75 1720.112c0-2.203 1.797-4 4-4 2.203 0 4 1.797 4 4m3.75.25v-1.658h-1.576a6.34 6.34 0 0 0-.807-1.967l1.11-1.107-1.995-1.994-1.11 1.113a6.34 6.34 0 0 0-1.964-.813v-1.574h-2.816v1.576a6.34 6.34 0 0 0-1.967.807l-1.107-1.11-1.995 1.995 1.114 1.111a6.34 6.34 0 0 0-.813 1.963h-1.574v1.658" color="#000" overflow="visible"></path></g></svg>37l1.313-2.028l72.516-144.72c1.215-2.423-.88-5.186-3.54-4.672l-25.505 4.922c-2.396.462-4.435-1.77-3.759-4.114l16.646-57.705c.677-2.35-1.37-4.583-3.769-4.113Z"></path></svg>